# xmcd CD database file
# Copyright (C) 1993-1996 Ti Kan
#
# Track frame offsets:
#  150
#  15321
#  28213
#  42381
#  55335
#  69071
#  82278
#  95911
#  109370
#  120354
#  133763
#  151058
#  168281
#  189289
#  212097
#  229678
#  248345
#  265993
#  285308
#  304344
#  321427
#  338581
#
# Disc length: 4735 seconds
#
# Revision: 1
# Processed by: cddbd v1.5.2PL0 Copyright (c) Steve Scherf et al.
# Submitted via: Advanced CD Ripper Pro 2.0
#
DISCID=2e127d16
DTITLE=LOS TEMERARIOS - LO MEJOR
DYEAR=2006
DGENRE=other
TTITLE0=QUE DE RARO TIENE
TTITLE1=LA DIFERENCIA
TTITLE2=RENUNCIACION
TTITLE3=DIOS DE LA MUERTE
TTITLE4=Track05
TTITLE5=Track06
TTITLE6=Track07
TTITLE7=Track08
TTITLE8=Track09
TTITLE9=Track10
TTITLE10=Track11
TTITLE11=Track12
TTITLE12=Track13
TTITLE13=Track14
TTITLE14=Track15
TTITLE15=Track16
TTITLE16=Track17
TTITLE17=Track18
TTITLE18=Track19
TTITLE19=Track20
TTITLE20=Track21
TTITLE21=Track22
EXTD=
EXTT0=
EXTT1=
EXTT2=
EXTT3=
EXTT4=
EXTT5=
EXTT6=
EXTT7=
EXTT8=
EXTT9=
EXTT10=
EXTT11=
EXTT12=
EXTT13=
EXTT14=
EXTT15=
EXTT16=
EXTT17=
EXTT18=
EXTT19=
EXTT20=
EXTT21=
PLAYORDER=
